Patient4_TMGait_0pt7_01_left_22_EMG.mot
version=1
nRows=30
nColumns=33
inDegrees=no
endheader
time	1LAddLong	2LGlutMax	3LGlutMed	4LIliopsoas	5LSemiMemb	6LBicFemLong	7LRecFem	8LVastMed	9LVastLat	10LGasMed	11LTibAnt	12lTibPost	13LPeroneusLong	14LSol	15LExtDigLong	16LFlexDigLong	17RAddLong	18RGlutMax	19RGlutMed	20RIliopsoas	21RSemiMemb	22RBicFemLong	23RRecFem	24RVastMed	25RVastLat	26RGasMed	27RTibAnt	28RTibPost	29RPeroneusLong	30RSol	31RExtDigLong	32RFlexDigLong
25.31	0.016632	0.34592	-0.028229	0.005951	-0.016327	-0.033875	0.13947	0.003357	0.25207	-0.037537	0.024109	-0.008545	0.12405	0.015564	-0.16327	-0.018616	-0.015564	0.00412	0.12253	-0.041962	-0.16403	-0.032043	-0.18463	-0.041351	0.077515	0.008698	-0.11978	-0.017395	0.66116	0.10513	-0.006561	-0.001373
25.311	0.013123	0.36468	-0.028229	0.010071	-0.00946	-0.051117	0.1294	0.002441	0.24658	0.001373	0.050659	-0.005951	0.057373	-0.018616	-0.25452	-0.020599	-0.014954	0.059662	0.1474	-0.019531	-0.022736	0.014343	-0.17532	-0.067902	0.12054	0.008392	-0.31082	-0.009155	-0.028229	0.20294	0.000458	-0.010223
25.312	0.012665	0.36209	-0.035095	0.009003	-0.018921	-0.041046	0.11139	0.008545	0.25055	0.013885	0.10178	-0.007019	0.041962	-0.036163	-0.59235	-0.022888	-0.02533	0.059967	0.3421	-0.047455	0.09613	-0.053101	-0.055847	-0.032959	0.084839	-0.002441	0.10834	-0.01297	-0.91003	0.34424	-0.001526	-0.009003
25.313	0.013275	0.3833	-0.03006	0.010681	-0.020447	-0.041809	0.10437	0.019226	0.25253	-0.00824	0.033569	-0.005951	0.099792	-0.084686	-0.14999	-0.010223	-0.022125	0.08255	0.30716	-0.098419	-0.16754	-0.033417	-0.060577	-0.003662	0.022278	-0.006104	0.15595	-0.019836	-1.604	0.42847	-0.00412	0.002441
25.314	0.013733	0.36636	-0.037537	0.009613	-0.021667	-0.055389	0.11093	-0.03418	0.23911	0.003357	0.027008	-0.011292	0.068207	-0.11719	-0.16342	-0.022125	-0.014954	0.06897	0.30594	-0.068054	-0.18524	0.049896	-0.055847	-0.016022	-0.054016	-0.009155	0.30045	-0.0177	-0.12314	0.36819	-0.001221	-0.00061
25.315	0.005188	0.3447	-0.047913	0.016479	-0.013123	-0.03952	0.086975	-0.034332	0.23758	-0.016785	0.098419	0.000153	0.048218	-0.15198	0.11978	-0.040283	-0.011902	0.06546	0.49179	-0.03418	-0.21408	0.022583	0.007324	-0.14908	-0.096741	-0.000763	0.16327	-0.021667	0.5336	0.22644	-0.002594	0.007477
25.316	0.010071	0.30304	-0.046692	0.021362	-0.01709	-0.051422	0.10391	0.008698	0.2356	-0.019379	0.16205	0.011597	0.049133	-0.071564	-0.14969	-0.030518	-0.010681	0.024719	0.51956	-0.068512	-0.052338	0.038757	0.074158	-0.16449	-0.15488	-0.009003	-0.26428	-0.025787	0.49042	0.12482	-0.001831	0.006104
25.317	0.012665	0.30075	-0.055695	0.012512	-0.011444	-0.054016	0.1294	0.010529	0.23529	-0.031128	0.059509	-0.000305	0.060577	-0.038147	0.011139	-0.018616	-0.02182	0.063019	0.42526	-0.047302	0.067291	0.017242	0.1471	-0.13763	-0.16541	0.006714	0.040588	0.04837	-0.16342	-0.016937	-0.004883	-0.00061
25.318	0.01358	0.26993	-0.054779	0.006866	-0.012512	-0.052338	0.13855	0.007172	0.21088	-0.048981	-0.059357	0.002899	0.13672	-0.073547	-0.088043	-0.021667	-0.030823	0.042725	0.58243	0.078735	-0.024567	0.059204	0.11902	-0.1355	-0.14328	0.021362	0.19287	0.026093	0.046844	-0.050049	-0.002899	-0.000153
25.319	0.015564	0.22766	-0.077972	0.002899	-0.01709	-0.063324	0.15808	0.006714	0.23712	-0.005798	0.026855	0.010071	0.10635	-0.070343	-0.3772	-0.00885	-0.037842	0.042267	0.22812	0.20477	-0.10849	0.050354	0.094299	-0.065918	-0.083923	0.02243	-0.13351	-0.011292	0.13351	-0.042114	-0.003967	0.002289
25.32	0.016327	0.22095	-0.082703	0.005646	-0.011292	-0.043488	0.12451	-0.002289	0.22919	-0.004578	0.016174	0.010986	0.10605	-0.091248	0.16373	-0.010681	-0.010376	0.028687	0.010376	0.19043	-0.086212	-0.052795	0.11108	0.11047	0.12299	0.003967	-0.42908	-0.012817	0.050659	0.11978	-0.00351	-0.000916
25.321	0.017548	0.20462	-0.11078	-0.004272	-0.014343	-0.075073	0.12711	0.000763	0.21744	0.009155	0.055237	0.00412	0.042267	-0.11765	0.52109	-0.007477	0.011292	-0.025024	0.34805	0.11887	-0.12878	-0.079803	0.23956	0.34729	0.086365	-0.009308	-0.34576	-0.006409	0.14999	0.25482	0.008087	-0.011749
25.322	0.014343	0.18982	-0.13916	0.001831	-0.009918	-0.042114	0.087891	-0.003357	0.21332	0.004883	-0.008698	0.011902	0.011902	-0.068817	-0.017395	-0.003815	0.007629	0.013428	0.28061	0.048523	-0.068359	-0.053864	0.26367	0.24048	-0.055389	-0.012207	-0.20294	-0.009918	0.10513	0.29419	0.000458	-0.010529
25.323	0.014954	0.18143	-0.13229	0.004883	-0.017242	-0.036774	0.053864	0.003815	0.19608	-0.011292	-0.12253	0.010071	-0.00061	-0.088959	-0.080109	-0.004425	0.000916	0.015717	0.72769	-0.046082	-0.1004	-0.008087	0.14633	0.001373	-0.12466	-0.016937	-0.2298	-0.009003	0.039825	0.21088	-0.004272	-0.015106
25.324	0.007629	0.13947	-0.10178	0.023193	-0.010834	-0.042877	0.019836	0.004272	0.19928	-0.054626	0.055695	0.011139	0.009918	-0.00473	-0.26077	0.002441	0.014648	-0.013275	0.75531	-0.10056	-0.052185	0.020447	0.026245	-0.12177	-0.063171	-0.023193	-0.27069	-0.014954	0.084076	0.34103	-0.001068	-0.007782
25.325	0.007172	0.1413	-0.017548	0.028687	-0.022125	-0.06073	0.010986	-0.001221	0.19424	-0.064087	-0.061798	0.013123	0.033264	0.062408	0.053101	0.012665	-0.022888	0.010376	0.16937	-0.10925	-0.06897	0.014496	-0.17456	-0.23193	-0.10269	-0.022583	-0.2388	-0.00885	0.045929	0.36667	-0.002441	-0.008392
25.326	0.010071	0.15839	-0.015717	0.010223	-0.017242	-0.058746	0.028229	0.00061	0.19547	-0.035858	-0.15778	0.010376	0.04715	0.041046	0.071869	-0.005035	-0.015869	-0.014191	-0.12711	-0.028992	-0.085602	0.024261	-0.031433	-0.12528	0.049133	-0.041962	-0.19409	0.002747	-0.063019	0.34286	-0.002899	-0.006256
25.327	0.013428	0.12756	-0.040131	-0.007019	-0.01709	-0.076752	0.015564	0.003357	0.17868	-0.025024	-0.18402	0.019073	0.058441	0.04776	-0.3241	0.002899	-0.018158	-0.008698	-0.1796	0.12405	-0.00473	-0.010376	-0.004425	0.057983	0.006714	-0.032349	-0.10651	-0.004883	-0.080109	0.12955	0.002289	-0.007629
25.328	0.011902	0.10468	-0.03891	-0.000458	-0.015869	-0.066833	-0.010376	0.002289	0.17639	-0.02243	-0.095215	0.015717	0.057831	0.072937	-0.19257	0.005341	-0.017548	-0.067596	-0.16464	0.17044	-0.064697	-0.052643	-0.062714	0.018158	-0.15243	-0.026398	0.11658	-0.001678	-0.18768	-0.15915	-0.001526	-0.01709
25.329	0.016937	0.10925	-0.043945	0.00473	-0.023956	-0.077667	0.020294	-0.000153	0.16068	-0.038147	-0.016327	0.023956	0.073547	0.021057	-0.11017	0.01236	-0.041656	0.001831	0.38208	0.06424	-0.10544	-0.05249	-0.19516	-0.06073	-0.046234	-0.007935	0.19547	0.000153	-0.19058	-0.28168	-0.003204	-0.008698
25.33	0.017242	0.12192	-0.061951	-0.008392	-0.005188	-0.094757	0.008087	0.000153	0.17731	-0.06073	-0.023499	0.015564	0.0914	-0.046692	0.037079	0.000153	-0.025177	0.036011	0.77835	0.044403	0.034943	-0.029907	-0.23575	0.055695	0.22507	0.005493	0.26596	-0.001678	0.032349	-0.37033	-0.001678	-0.001831
25.331	0.021362	0.12177	-0.058899	0.002747	-0.013428	-0.083466	0.019531	-0.005341	0.16007	-0.055847	0.023193	0.021362	0.070496	-0.035858	-0.065918	-0.003052	-0.015564	-0.005035	0.40085	-0.050659	0.19257	-0.081635	-0.09613	0.012054	0.063019	0.002441	0.62531	-0.013885	-0.053406	-0.64636	-0.002899	-0.00473
25.332	0.023193	0.14771	-0.094757	0.00824	-0.014648	-0.090332	-0.001984	-0.002289	0.15182	-0.042877	0.058441	0.02655	0.080566	-0.14038	-0.1236	0.000458	-0.01236	-0.015106	0.96939	-0.055237	0.086517	-0.088196	-0.16159	-0.001984	0.11993	-0.016937	0.35782	0.014038	-0.04364	-0.88577	0	-0.007019
25.333	0.016632	0.11993	-0.093689	-0.005341	-0.003204	-0.063934	0.000153	0.005188	0.14481	-0.017853	0.01236	0.025787	0.13947	-0.25055	-0.00946	0.023193	0.013885	-0.042114	0.60989	0.058899	0.041199	-0.081635	-0.24262	-0.092926	0.13184	-0.028076	-0.10117	-0.000458	-0.034332	-1.0928	-0.00061	-0.007477
25.334	0.010834	0.10834	-0.075989	-0.00885	-0.001984	-0.037842	0.003052	0.004272	0.14053	0.005188	0.022583	0.027008	0.11063	-0.13397	0.032196	0.014954	0.03067	-0.057526	0.36087	0.074158	-0.014496	-0.10361	0.062561	-0.10239	0.056305	-0.024414	-0.19409	-0.009918	0.003204	-1.2193	-0.000305	-0.011597
25.335	0.018768	0.097046	-0.045319	0.014191	-0.007324	-0.030975	0.007324	0.002136	0.13138	0.018616	0.029602	0.024567	0.041199	0.031128	-0.049591	0.017395	0.016479	-0.083923	0.1973	0.044556	-0.049438	-0.09613	-0.043182	-0.070953	0.06012	-0.015564	-0.33569	0.001984	0.11963	-0.61569	-0.005493	-0.000916
25.336	0.013428	0.098572	-0.020142	0.019836	-0.004883	-0.012665	0.005341	0.000916	0.11993	0.014038	0.074615	0.02533	0.023041	0.036926	0.16602	0.01236	-0.022736	-0.096893	0.029449	0.02533	-0.12299	-0.067291	-0.13062	-0.08316	0.065002	-0.022888	-0.080414	-0.007935	0.040741	-0.1564	0.000305	-0.00946
25.337	0.002441	0.11932	-0.024567	0.014496	-0.022278	-0.025024	0.007172	-0.002136	0.11917	0.005646	0.09552	0.026245	0.038452	-0.041199	0.54138	0.010071	-0.035553	-0.065765	0.11581	0.051117	-0.095367	-0.075531	-0.18539	-0.061188	0.063934	-0.023346	0.61508	0.000458	-0.14282	0.32989	-0.002136	-0.01297
25.338	0.012512	0.12528	-0.071106	0.006104	-0.051575	-0.040588	0.030365	-0.002136	0.11261	-0.011902	0.076294	0.026855	0.067596	-0.21973	0.03006	0.012817	-0.029602	-0.034332	0.047302	0.005341	-0.011139	-0.073395	-0.11765	-0.057068	0.03418	-0.011597	1.0619	0.007629	-0.17197	0.77331	-0.001984	-0.010071
25.339	0.002747	0.13565	-0.05722	0	-0.02594	-0.076447	0.017395	0.004578	0.11826	-0.018005	0.007172	0.033722	0.068207	-0.37018	-0.29846	0.018768	-0.00885	-0.009308	-0.063324	-0.023193	-0.021515	-0.016174	0.085907	-0.087585	-0.025482	0.007477	0.59601	0.01236	-0.29724	0.82657	0.000458	-0.001373
